<svg xmlns="http://www.w3.org/2000/svg" width="600" height="467.728" viewBox="0 0 600 467.728"><path d="M342.606 259.547c-18.455 9.433-39.524 14.149-63.208 14.149-18.199 0-34.962-2.973-50.239-8.92-15.327-5.946-28.553-14.354-39.729-25.273-11.175-10.97-19.89-24.094-26.195-39.524-6.306-15.43-9.484-32.706-9.484-51.93 0-18.916 3.28-36.09 9.843-51.52 6.561-15.43 15.635-28.605 27.323-39.524 11.637-10.92 25.58-19.43 41.882-25.478 16.25-6.05 34.09-9.125 53.52-9.125 6.818 0 14.815.667 24.042 2 9.227 1.383 18.096 2.87 26.606 4.562 8.715 1.691 16.353 3.23 22.914 4.562 6.562 1.333 10.458 2 11.689 2 1.896 0 3.23-.103 3.998-.36 0 4.87-.154 9.536-.359 14.047-.256 4.46-.41 9.125-.41 13.995 0 10.201.41 20.351 1.128 30.399.718 10.099 1.692 20.25 2.922 30.4h-9.125c-1.691-11.125-5.075-21.89-10.201-32.194-5.075-10.355-11.432-19.429-18.917-27.324-7.535-7.894-16.096-14.2-25.682-18.967-9.587-4.716-19.993-7.074-31.169-7.074-14.559 0-26.81 3.28-36.756 9.842-9.945 6.562-17.993 14.866-24.042 24.914-6.1 10.1-10.407 21.326-12.919 33.732-2.563 12.354-3.845 24.401-3.845 36.038 0 15.071 2.051 28.964 6.203 41.677 4.102 12.765 10.202 23.838 18.199 33.168s18.045 16.609 30.04 21.838c12.047 5.229 26.042 7.843 42.088 7.843 11.38 0 21.787-1.692 31.117-5.126 9.33-3.383 17.737-7.741 25.119-13.072 8.715-6.306 10.099-9.69 19.685-18.045 2.153-1.897 4.306-3.589 6.357-5.178.051-.051.051-.102.102-.102l2.46-2.615a331.397 331.397 0 0 1 11.176-11.278V0H128.837v285.794h195.621a697.292 697.292 0 0 1 5.332-7.74c4.255-6.204 8.51-12.355 12.816-18.507zm198.646 98.272c-11.79 0-22.556-.205-32.296-.564-9.74-.358-18.66-.768-26.862-1.281v8.663c7.69.974 13.995 2.102 18.916 3.435 4.921 1.333 8.869 3.076 11.74 5.229 2.87 2.153 4.92 4.921 6.151 8.304 1.179 3.333 1.794 7.536 1.794 12.611v36.039c-6.254 6.51-14.25 11.739-23.991 15.686-9.74 3.948-19.275 5.947-28.656 5.947-15.123 0-28.195-3.076-39.114-9.176-10.92-6.152-19.942-14.252-27.016-24.35-7.126-10.1-12.355-21.634-15.687-34.603-3.383-12.97-5.075-26.452-5.075-40.396 0-13.944 1.692-27.375 5.075-40.344a111.534 111.534 0 0 1 5.895-17.225 87.979 87.979 0 0 1 6.613-12.508c.974-1.692 2.051-3.281 3.179-4.87 7.074-10.1 16.096-18.25 27.016-24.35 10.919-6.152 23.99-9.177 39.114-9.177 11.995 0 22.504 1.795 31.527 5.383 9.022 3.588 16.814 8.458 23.427 14.61 6.613 6.1 12.303 13.329 16.968 21.633a137.568 137.568 0 0 1 11.33 26.145h9.74c-1.692-6.255-3.025-12.252-4.153-18.045a312.426 312.426 0 0 1-2.665-16.968 252.195 252.195 0 0 1-1.64-16.917c-.36-5.793-.514-11.893-.514-18.404a782.875 782.875 0 0 1-41.472-8.458c-13.943-3.23-28.246-4.87-42.907-4.87-20.454 0-39.114 2.82-56.082 8.458a136.9 136.9 0 0 0-12.868 5.024 127.972 127.972 0 0 0-15.584 8.15c-6.049 7.998-11.893 16.2-17.686 24.556-4.87 6.818-9.637 13.687-14.456 20.608-6.1 8.766-12.2 17.584-18.455 26.298-2.255 9.792-3.332 20.198-3.332 31.271 0 19.48 3.383 36.96 10.099 52.494 6.767 15.482 16.25 28.502 28.502 39.114 12.252 10.56 26.863 18.66 43.78 24.299 16.968 5.639 35.628 8.458 56.082 8.458 9.125 0 17.788-.717 25.94-2.153a235.521 235.521 0 0 0 24.35-5.587c8.048-2.256 16.198-4.87 24.503-7.741 8.305-2.871 17.122-5.742 26.504-8.664v-54.8c0-6.716 2.46-12.304 7.382-16.764 4.92-4.408 12.815-6.869 23.632-7.382v-8.663c-7.946.513-16.815.923-26.708 1.281-9.843.36-20.506.564-32.04.564z" fill="#7d7c7f"/><path d="M551.197 112.164c-40.242 10.304-79.92 25.632-115.343 49.47-13.226 8.97-25.58 19.326-37.115 30.45a331.397 331.397 0 0 0-11.175 11.278l-2.46 2.615c-.052 0-.052.05-.103.102-13.688 14.61-25.53 30.605-37.32 46.394l-5.075 7.074a2374.112 2374.112 0 0 0-12.816 18.506 697.29 697.29 0 0 0-5.332 7.741 1826.938 1826.938 0 0 0-12.149 17.84c-5.793 8.56-11.534 17.122-17.481 25.529l-8.817 12.662-9.125 11.893c-24.76 31.374-56.185 57.62-92.941 74.794-4.409 1.999-8.869 3.896-13.38 5.639-6.408-1.436-12.764-3.076-18.916-5.024l-7.126-2.153c-2.358-.77-4.562-1.692-6.869-2.563-2.358-.923-4.408-1.64-7.023-2.717-2.512-1.077-5.024-2.102-7.638-2.973-20.506-7.588-42.6-10.663-64.387-9.228-10.92.769-21.787 2.666-32.347 6.305-5.28 1.897-10.51 4.153-15.585 7.587-2.512 1.692-4.972 3.691-7.228 6.562-2.102 2.768-4.203 7.228-3.178 11.996.359 1.179.82 2.307 1.333 3.434.512.974 1.281 1.743 1.999 2.563.718.923 1.435 1.333 2.204 1.897.718.462 1.538 1.128 2.256 1.384 2.973 1.487 5.793 2.41 8.561 2.974 5.536 1.23 10.92 1.64 16.25 1.897 10.612.512 21.07.153 31.527-.462 10.304-.308 20.608-.666 30.912-.769 10.407.052 20.967-.615 31.425-1.743 10.048-1.025 19.89-2.922 29.835-4.921 7.228 1.59 14.508 2.717 21.736 3.793 10.458 1.538 20.967 2.358 31.425 3.025l15.686.666 15.687.103c20.916-.205 41.729-1.384 62.439-4.255l-.154-2.05c-38.089-2.256-76.075-4.922-113.036-11.381 19.121-7.126 37.628-16.66 54.493-28.554 17.635-12.2 33.065-27.323 46.958-43.574l10.15-12.406 9.381-12.508c6.305-8.305 12.354-16.763 18.506-25.17.923-1.23 1.846-2.512 2.717-3.794 6.254-8.714 12.355-17.532 18.455-26.298 4.819-6.92 9.586-13.79 14.456-20.608 5.793-8.356 11.637-16.558 17.686-24.555 5.024-6.716 10.202-13.329 15.584-19.737 1.18-1.435 2.359-2.87 3.589-4.255 3.127-3.947 6.664-7.535 10.047-11.226 3.435-3.691 6.818-7.382 10.56-10.766 3.692-3.383 7.126-7.074 10.971-10.304l11.534-9.688c31.681-24.914 68.437-43.984 106.423-60.543l-.666-1.948zM125.812 446.25c-10.099 1.64-20.249 2.204-30.502 2.358-10.406.307-20.864.205-31.168.41-10.253.205-20.557-.154-30.553-1.281-4.972-.667-9.945-1.538-14.405-2.974-2.255-.666-4.306-1.589-5.895-2.614-1.487-1.077-2.102-2.102-1.897-2.205.051-.46.359-1.127 1.487-2.306 1.076-1.128 2.717-2.307 4.613-3.281 3.794-2.05 8.356-3.537 12.919-4.614 9.279-2.256 19.121-3.127 28.861-3.178 19.583-.154 39.217 3.024 57.723 9.278 2.307.718 4.614 1.59 6.87 2.512l7.535 2.717c2.563.872 5.126 1.897 7.74 2.666-4.408 1.025-8.868 1.846-13.328 2.512zM444.357 67.99c13.974 0 25.301-11.327 25.301-25.3 0-13.974-11.327-25.302-25.3-25.302-13.974 0-25.302 11.328-25.302 25.301 0 13.974 11.328 25.301 25.301 25.301z" fill="#fbb02f"/></svg>